# xmcd
#
# Track frame offsets:
#	150
#	12032
#	22113
#	30794
#	42078
#	53289
#	65063
#	76958
#	87328
#	96198
#	104248
#	116114
#	126941
#	137153
#	147829
#	156764
#
# Disc length: 2240 seconds
#
# Revision: 1
# Processed by: cddbd v1.5.2PL0 Copyright (c) Steve Scherf et al.
# Submitted via: audiograbber 1.83.01
#
DISCID=d108be10
DTITLE=Barbara Lynn - The Jamie Singles Collection, 1962-1965 [CD1]
DYEAR=1900
DGENRE=R&B
TTITLE0=You'll Lose A Good Thing
TTITLE1=Lonely Heartache
TTITLE2=Second Fiddle Girl
TTITLE3=Letter To Mommy and Daddy
TTITLE4=I'm Sorry I Met You
TTITLE5=You're Gonna Need Me
TTITLE6=Don't Be Cruel
TTITLE7=You Can't Be Satisfied
TTITLE8=To Love Or Not To Love
TTITLE9=Promises
TTITLE10=(I Cried At) Laura's Wedding
TTITLE11=You Better Stop
TTITLE12=Dedicate The Blues To Me
TTITLE13=Everybody Loves Somebody
TTITLE14=Money
TTITLE15=Jealous Love
EXTD=
EXTT0=
EXTT1=
EXTT2=
EXTT3=
EXTT4=
EXTT5=
EXTT6=
EXTT7=
EXTT8=
EXTT9=
EXTT10=
EXTT11=
EXTT12=
EXTT13=
EXTT14=
EXTT15=
PLAYORDER=
